<svg width="100%" height="100%" viewBox="-2.5 -2.5 68.98 68.98" version="1.1" xmlns="http://www.w3.org/2000/svg">
<title>Prototec Logo</title><desc>Copyright http://www.prototec.co.nz</desc>
<g fill="black">
<path d="M24.23 14.57A0.8 0.8 0 0,0 24.58 15.26L27.82 17.48A1.5 1.5 0 0,1 26.86 20.21L22.94 19.91A0.8 0.8 0 0,0 22.24 20.23A10 10 0 0,0 21.06 21.54
A0.8 0.8 0 0,0 20.82 22.27L21.55 26.13A1.5 1.5 0 0,1 18.93 27.38L16.38 24.4A0.8 0.8 0 0,0 15.66 24.13A10 10 0 0,0 13.9 24.23
A0.8 0.8 0 0,0 13.21 24.58L10.99 27.82A1.5 1.5 0 0,1 8.26 26.86L8.56 22.94A0.8 0.8 0 0,0 8.24 22.24A10 10 0 0,0 6.93 21.06
A0.8 0.8 0 0,0 6.2 20.82L2.34 21.55A1.5 1.5 0 0,1 1.09 18.93L4.07 16.38A0.8 0.8 0 0,0 4.34 15.66A10 10 0 0,0 4.24 13.9
A0.8 0.8 0 0,0 3.89 13.21L0.65 10.99A1.5 1.5 0 0,1 1.61 8.26L5.53 8.56A0.8 0.8 0 0,0 6.23 8.24A10 10 0 0,0 7.41 6.93
A0.8 0.8 0 0,0 7.65 6.2L6.92 2.34A1.5 1.5 0 0,1 9.54 1.09L12.09 4.07A0.8 0.8 0 0,0 12.81 4.34A10 10 0 0,0 14.57 4.24
A0.8 0.8 0 0,0 15.26 3.89L17.48 0.65A1.5 1.5 0 0,1 20.21 1.61L19.91 5.53A0.8 0.8 0 0,0 20.23 6.23A10 10 0 0,0 21.54 7.41
A0.8 0.8 0 0,0 22.27 7.65L26.13 6.92A1.5 1.5 0 0,1 27.38 9.54L24.4 12.09A0.8 0.8 0 0,0 24.13 12.81A10 10 0 0,0 24.23 14.57
M17.23,14.23A3,3 0 1,0 11.23,14.23A3,3 0 1,0 17.23,14.23" />
<path d="M58.75 35.94A0.8 0.8 0 0,0 59.33 36.59L62.87 37.53A1.5 1.5 0 0,1 62.87 40.43L59.33 41.38A0.8 0.8 0 0,0 58.75 42.03A20 20 0 0,0 58.41 43.73
A0.8 0.8 0 0,0 58.7 44.56L61.61 46.79A1.5 1.5 0 0,1 60.5 49.46L56.87 48.99A0.8 0.8 0 0,0 56.08 49.36A20 20 0 0,0 55.12 50.81
A0.8 0.8 0 0,0 55.07 51.68L56.9 54.85A1.5 1.5 0 0,1 54.85 56.9L51.68 55.07A0.8 0.8 0 0,0 50.81 55.12A20 20 0 0,0 49.36 56.08
A0.8 0.8 0 0,0 48.99 56.87L49.46 60.5A1.5 1.5 0 0,1 46.79 61.61L44.56 58.7A0.8 0.8 0 0,0 43.73 58.41A20 20 0 0,0 42.03 58.75
A0.8 0.8 0 0,0 41.38 59.33L40.43 62.87A1.5 1.5 0 0,1 37.53 62.87L36.59 59.33A0.8 0.8 0 0,0 35.94 58.75A20 20 0 0,0 34.24 58.41
A0.8 0.8 0 0,0 33.41 58.7L31.18 61.61A1.5 1.5 0 0,1 28.5 60.5L28.98 56.87A0.8 0.8 0 0,0 28.6 56.08A20 20 0 0,0 27.16 55.12
A0.8 0.8 0 0,0 26.29 55.07L23.12 56.9A1.5 1.5 0 0,1 21.07 54.85L22.9 51.68A0.8 0.8 0 0,0 22.85 50.81A20 20 0 0,0 21.89 49.36
A0.8 0.8 0 0,0 21.1 48.99L17.47 49.46A1.5 1.5 0 0,1 16.36 46.79L19.27 44.56A0.8 0.8 0 0,0 19.56 43.73A20 20 0 0,0 19.22 42.03
A0.8 0.8 0 0,0 18.63 41.38L15.1 40.43A1.5 1.5 0 0,1 15.1 37.53L18.63 36.59A0.8 0.8 0 0,0 19.22 35.94A20 20 0 0,0 19.56 34.24
A0.8 0.8 0 0,0 19.27 33.41L16.36 31.18A1.5 1.5 0 0,1 17.47 28.5L21.1 28.98A0.8 0.8 0 0,0 21.89 28.6A20 20 0 0,0 22.85 27.16
A0.8 0.8 0 0,0 22.9 26.29L21.07 23.12A1.5 1.5 0 0,1 23.12 21.07L26.29 22.9A0.8 0.8 0 0,0 27.16 22.85A20 20 0 0,0 28.6 21.89
A0.8 0.8 0 0,0 28.98 21.1L28.5 17.47A1.5 1.5 0 0,1 31.18 16.36L33.41 19.27A0.8 0.8 0 0,0 34.24 19.56A20 20 0 0,0 35.94 19.22
A0.8 0.8 0 0,0 36.59 18.63L37.53 15.1A1.5 1.5 0 0,1 40.43 15.1L41.38 18.63A0.8 0.8 0 0,0 42.03 19.22A20 20 0 0,0 43.73 19.56
A0.8 0.8 0 0,0 44.56 19.27L46.79 16.36A1.5 1.5 0 0,1 49.46 17.47L48.99 21.1A0.8 0.8 0 0,0 49.36 21.89A20 20 0 0,0 50.81 22.85
A0.8 0.8 0 0,0 51.68 22.9L54.85 21.07A1.5 1.5 0 0,1 56.9 23.12L55.07 26.29A0.8 0.8 0 0,0 55.12 27.16A20 20 0 0,0 56.08 28.6
A0.8 0.8 0 0,0 56.87 28.98L60.5 28.5A1.5 1.5 0 0,1 61.61 31.18L58.7 33.41A0.8 0.8 0 0,0 58.41 34.24A20 20 0 0,0 58.75 35.94
M41.98,38.98A3,3 0 1,0 35.98,38.98A3,3 0 1,0 41.98,38.98" />
</g>
</svg>
